<svg id="Layer_1" enable-background="new 0 0 256 256" height="512" viewBox="0 0 256 256" width="512" xmlns="http://www.w3.org/2000/svg"><path d="m201.709 24.469h-72.309c.951-4.789.616-9.881-1.215-14.749-.704-1.872-2.788-2.833-4.678-2.181l-61.425 21.167c-2.556.881-4.906 2.271-6.91 4.085l-11.628 10.531c-3.052 2.764-5.176 6.402-6.083 10.419l-10.182 45.09c-.727 3.218-2.238 6.206-4.398 8.697l-5.066 5.842v72.677 61.288c5.397 0 10.322-3.078 12.687-7.93l26.005-53.358 21.667-48.288h36.824c5.119 0 10.189-.982 14.938-2.894l31.08-13.265.02-.006c1.023-.167 1.979-.527 2.832-1.043.045-.027.091-.054.135-.082.598-.378 1.14-.832 1.617-1.35.043-.046.085-.092.127-.14.231-.264.45-.539.646-.831.003-.004.005-.008.007-.012.187-.28.351-.577.501-.88.035-.07.069-.14.102-.211.145-.315.276-.637.38-.972.003-.009.004-.019.007-.028.098-.323.17-.656.227-.995.015-.088.028-.176.04-.265.048-.353.081-.71.081-1.077v-8.144c0-.552-.056-1.091-.162-1.612-.107-.521-.264-1.023-.466-1.501-.141-.333-.311-.65-.494-.958-.211-.356-.442-.699-.704-1.017-.326-.396-.689-.759-1.084-1.085-1.382-1.141-3.154-1.826-5.086-1.827h12.998c4.418 0 8-3.582 8-8v-.386-.001-8.144c-.76-7.383-7.566-7.599-7.566-7.599l1.3-.207 1.213-.375c2.959-1.173 5.053-4.055 5.053-7.431v-8.144-.001-.554c0-4.479-3.631-8.109-8.109-8.109h5.972 9.322 14.185c6.742 0 12.194-5.528 12.07-12.298-.122-6.646-5.824-11.846-12.471-11.846z" fill="#f9cfcf"/><path d="m209.727 127.336v-33.427c0-1.026-.832-1.857-1.857-1.857h-11.947c-1.026 0-1.857.832-1.857 1.857v33.427z" fill="#e0ebfc"/><path d="m201.718 248c-20.788 0-37.641-16.852-37.641-37.641v-57.396c0-7.077 5.737-12.814 12.814-12.814h49.654c7.077 0 12.814 5.737 12.814 12.814v57.396c0 20.789-16.853 37.641-37.641 37.641z" fill="#4671c6"/><path d="m215.511 140.15h-27.585v-8.543c0-2.359 1.912-4.271 4.271-4.271h19.043c2.359 0 4.271 1.912 4.271 4.271z" fill="#a4c9ff"/><path d="m225.477 149.76h-47.518c-2.359 0-4.271 1.912-4.271 4.271v31.323c0 2.359 1.912 4.271 4.271 4.271h47.518c2.359 0 4.271-1.912 4.271-4.271v-31.323c0-2.358-1.912-4.271-4.271-4.271z" fill="#a4c9ff"/><path d="m197.803 233.44v-30.846c0-2.051-1.663-3.714-3.714-3.714h-16.686c-2.051 0-3.714 1.663-3.714 3.714v7.765c0 12.41 8.108 22.957 19.303 26.633 2.375.78 4.811-1.051 4.811-3.552z" fill="#6bdddd"/><path d="m205.633 233.44v-30.846c0-2.051 1.663-3.714 3.714-3.714h16.686c2.051 0 3.714 1.663 3.714 3.714v7.765c0 12.41-8.108 22.957-19.303 26.633-2.375.78-4.811-1.051-4.811-3.552z" fill="#6bdddd"/><path d="m194.065 99.306h15.661v8.357h-15.661z" fill="#f9a7a7"/><path d="m192.545 66.654c-1.185 1.698-1.889 3.736-1.921 5.931-.084 5.787 4.686 10.733 10.666 11.036 6.501.329 11.88-4.668 11.88-10.88 0-2.255-.709-4.349-1.923-6.087l-.003-.004-8.409-12.243c-.446-.649-1.433-.649-1.878 0l-8.408 12.242c-.001.001-.001.001-.002.002z" fill="#f9a7a7"/><path d="m201.06 78.517c-.008-1.173-.795-2.138-1.822-2.322-.001 0-.001 0-.002 0-.007-.001-.015-.002-.022-.003-1.589-.193-2.784-.716-2.922-.779-.453-.224-.751-.441-.908-.571-1.022-.876-1.81-2.33-1.506-4.741.049-.391-.197-.771-.567-.825-.357-.052-.681.194-.753.554-.265 1.331-.698 4.797 1.157 7.64s1.071 1.784 3.006 2.789l-.001.001s1.595 1.005 2.712.575l-.001-.001c.104-.029.207-.065.306-.113.174-.083.352-.197.524-.352.021-.019.041-.038.061-.058.021-.02.042-.041.062-.062.039-.04.075-.082.111-.125.016-.019.031-.037.047-.057.017-.022.034-.044.051-.067.007-.009.014-.018.021-.028l-.002-.001c.283-.403.451-.907.448-1.454z" fill="#f9cfcf"/><path d="m189.217 171.842-8.982 3.911c-1.006.438-2.131-.299-2.131-1.396v-.021c0-.626.383-1.189.967-1.418l7.439-2.92-7.432-2.876c-.587-.227-.973-.791-.973-1.42 0-1.095 1.121-1.832 2.126-1.398l8.982 3.875c.558.241.92.791.92 1.398v.87c-.001.605-.36 1.153-.916 1.395z" fill="#ffea92"/><path d="m195.692 169.184c.542-.646 1.132-1.124 1.77-1.435s1.351-.466 2.14-.466c.757 0 1.456.142 2.098.424.642.283 1.204.685 1.686 1.208.482.522.855 1.138 1.118 1.847.263.71.394 1.451.394 2.224 0 1.124-.257 2.144-.771 3.061s-1.232 1.633-2.152 2.146c-.921.514-1.964.772-3.127.772-1.34 0-2.496-.327-3.467-.98-.973-.653-1.716-1.62-2.231-2.9-.514-1.279-.771-2.844-.771-4.693 0-1.507.155-2.853.466-4.041s.757-2.172 1.34-2.953c.581-.781 1.287-1.372 2.116-1.77.829-.399 1.773-.598 2.834-.598 1.02 0 1.919.199 2.697.598.777.398 1.363.892 1.758 1.482.394.59.591 1.156.591 1.698 0 .327-.123.624-.371.891-.247.267-.562.4-.945.4-.335 0-.646-.105-.932-.316-.287-.212-.499-.504-.634-.879-.183-.479-.475-.863-.873-1.154-.399-.291-.861-.437-1.387-.437-.423 0-.844.122-1.262.365-.418.244-.771.572-1.058.986-.58.846-.924 2.352-1.027 4.52zm3.229 7.425c.805 0 1.471-.328 1.997-.986.526-.657.789-1.52.789-2.589 0-.725-.124-1.348-.371-1.871-.248-.522-.586-.921-1.016-1.196-.431-.275-.905-.413-1.423-.413-.494 0-.967.132-1.417.395s-.812.644-1.088 1.142c-.275.498-.413 1.082-.413 1.751 0 1.077.28 1.973.838 2.691.557.718 1.258 1.076 2.104 1.076z" fill="#ffea92"/><path d="m209.706 178.989c-.526 0-.981-.162-1.364-.484-.382-.323-.574-.776-.574-1.357 0-.503.187-.925.562-1.268s.817-.514 1.327-.514c.382 0 .73.104 1.041.312.311.207.554.512.729.914.176.403.263.899.263 1.488 0 .789-.167 1.529-.502 2.218-.335.69-.744 1.236-1.226 1.639-.482.402-.918.604-1.309.604-.248 0-.448-.082-.604-.246-.156-.163-.234-.352-.234-.568 0-.327.164-.59.49-.789.934-.519 1.401-1.168 1.401-1.949z" fill="#ffea92"/><path d="m218.895 177.148v-2.224h-6.003c-.757 0-1.325-.172-1.704-.514-.379-.343-.568-.809-.568-1.399 0-.151.028-.305.083-.46.056-.156.14-.319.251-.49.112-.172.227-.337.347-.497.119-.159.267-.354.443-.585l6.337-8.477c.415-.558.755-.963 1.022-1.213.267-.251.588-.377.963-.377 1.211 0 1.817.693 1.817 2.08v9.254h.514c.613 0 1.106.084 1.476.251.371.168.556.534.556 1.1 0 .463-.151.8-.454 1.011-.304.212-.758.317-1.364.317h-.729v2.224c0 .613-.136 1.07-.407 1.369s-.634.448-1.088.448c-.447 0-.807-.153-1.081-.46-.274-.308-.411-.76-.411-1.358zm-5.141-4.903h5.142v-6.946z" fill="#ffea92"/><g fill="#3762cc"><path d="m78.177 64.078c-.729 0-1.433-.399-1.785-1.095-.5-.984-.107-2.188.878-2.688l36.968-18.777c11.366-5.773 16.563-19.13 12.086-31.068-.329-.876-1.279-1.324-2.163-1.019l-43.379 14.947c-1.046.359-2.183-.194-2.542-1.239-.36-1.044.194-2.183 1.239-2.542l43.377-14.947c2.946-1.017 6.117.474 7.213 3.396 5.192 13.849-.836 29.342-14.021 36.039l-36.968 18.776c-.29.148-.599.217-.903.217z"/><path d="m172.631 75.421h-47.129c-7.255 0-13.157-5.902-13.157-13.157v-2.493c0-7.255 5.902-13.157 13.157-13.157h47.129c5.574 0 10.109 4.535 10.109 10.109v8.589c0 5.574-4.535 10.109-10.109 10.109zm-47.129-24.808c-5.05 0-9.157 4.108-9.157 9.157v2.493c0 5.049 4.107 9.157 9.157 9.157h47.129c3.369 0 6.109-2.74 6.109-6.109v-8.589c0-3.369-2.74-6.109-6.109-6.109z"/><path d="m159.739 123.709h-33.864c-7.76 0-14.072-6.313-14.072-14.072s6.313-14.071 14.072-14.071h33.864c5.514 0 10 4.486 10 10v8.144c0 5.513-4.486 9.999-10 9.999zm-33.864-24.144c-5.554 0-10.072 4.518-10.072 10.071s4.519 10.072 10.072 10.072h33.864c3.309 0 6-2.691 6-6v-8.144c0-3.309-2.691-6-6-6h-33.864z"/><path d="m172.74 99.565h-47.389c-7.172 0-13.007-5.835-13.007-13.008v-2.129c0-7.173 5.835-13.008 13.007-13.008h47.389c5.514 0 10 4.486 10 10v8.145c0 5.514-4.486 10-10 10zm-47.388-24.144c-4.967 0-9.007 4.041-9.007 9.008v2.129c0 4.967 4.04 9.008 9.007 9.008h47.389c3.309 0 6-2.691 6-6v-8.145c0-3.309-2.691-6-6-6z"/><path d="m209.727 129.336h-15.661c-1.104 0-2-.896-2-2v-33.427c0-2.127 1.73-3.857 3.856-3.857h11.947c2.127 0 3.857 1.73 3.857 3.857v33.427c.001 1.104-.895 2-1.999 2zm-13.662-4h11.661v-31.284h-11.661z"/><path d="m201.718 250c-21.857 0-39.641-17.782-39.641-39.641v-57.396c0-8.169 6.646-14.814 14.813-14.814h49.654c8.168 0 14.813 6.646 14.813 14.814v57.396c.001 21.859-17.782 39.641-39.639 39.641zm-24.827-107.851c-5.963 0-10.813 4.852-10.813 10.814v57.396c0 19.652 15.988 35.641 35.641 35.641s35.641-15.988 35.641-35.641v-57.396c0-5.963-4.851-10.814-10.813-10.814z"/><path d="m215.511 142.149h-27.586c-1.104 0-2-.896-2-2v-8.542c0-3.458 2.813-6.271 6.271-6.271h19.043c3.458 0 6.271 2.813 6.271 6.271v8.542c.001 1.105-.895 2-1.999 2zm-25.586-4h23.586v-6.542c0-1.253-1.019-2.271-2.271-2.271h-19.043c-1.253 0-2.271 1.019-2.271 2.271v6.542z"/><path d="m225.477 191.626h-47.518c-3.458 0-6.271-2.813-6.271-6.271v-31.323c0-3.458 2.813-6.271 6.271-6.271h47.518c3.458 0 6.271 2.813 6.271 6.271v31.323c0 3.458-2.813 6.271-6.271 6.271zm-47.518-39.866c-1.253 0-2.271 1.019-2.271 2.271v31.323c0 1.253 1.019 2.271 2.271 2.271h47.518c1.253 0 2.271-1.019 2.271-2.271v-31.323c0-1.253-1.019-2.271-2.271-2.271z"/><path d="m194.128 239.177c-.588 0-1.181-.094-1.761-.284-12.369-4.062-20.68-15.527-20.68-28.533v-7.765c0-3.151 2.563-5.715 5.715-5.715h16.686c3.151 0 5.715 2.563 5.715 5.715v30.846c0 1.835-.89 3.574-2.379 4.653-.986.715-2.132 1.083-3.296 1.083zm-16.726-38.297c-.945 0-1.715.77-1.715 1.715v7.765c0 11.272 7.204 21.212 17.928 24.732.68.226 1.208-.053 1.463-.238.461-.333.725-.849.725-1.413v-30.846c0-.945-.77-1.715-1.715-1.715z"/><path d="m209.309 239.177c-1.164 0-2.31-.368-3.296-1.083-1.489-1.079-2.379-2.818-2.379-4.653v-30.846c0-3.151 2.563-5.715 5.714-5.715h16.687c3.15 0 5.714 2.563 5.714 5.715v7.765c0 13.006-8.311 24.472-20.679 28.533-.581.19-1.174.284-1.761.284zm.039-38.297c-.945 0-1.714.77-1.714 1.715v30.846c0 .564.264 1.08.725 1.413.255.186.785.464 1.463.238 10.723-3.521 17.927-13.46 17.927-24.732v-7.765c0-.945-.769-1.715-1.714-1.715z"/><path d="m17.814 249.336c-1.104 0-2-.896-2-2v-133.965c0-.481.174-.946.489-1.311l5.065-5.843c1.938-2.233 3.307-4.94 3.958-7.827l10.182-45.09c1.004-4.442 3.318-8.406 6.693-11.461l11.627-10.531c2.217-2.008 4.774-3.52 7.602-4.493l61.425-21.167c2.896-.995 6.128.514 7.202 3.368 1.62 4.308 2.189 8.913 1.676 13.452h69.976c7.84 0 14.332 6.194 14.471 13.81.069 3.811-1.361 7.405-4.028 10.122-2.668 2.717-6.233 4.213-10.041 4.213h-21.43c1.292 1.698 2.06 3.815 2.06 6.109v8.699c0 3.214-1.507 6.138-3.99 7.991 1.938 1.431 3.604 3.768 3.979 7.415.007.068.011.137.011.205v8.531c0 5.514-4.486 10-10 10h-5.003c.204.275.402.575.599.906.253.426.454.817.616 1.198.258.609.453 1.242.585 1.884.134.657.202 1.334.202 2.012v8.145c0 .414-.031.84-.098 1.34l-.051.331c-.074.444-.164.84-.275 1.208-.011.042-.023.083-.034.117-.104.34-.26.738-.46 1.175l-.13.271c-.199.399-.397.749-.605 1.064-.011.016-.021.031-.031.047-.23.345-.493.684-.805 1.038l-.17.187c-.585.637-1.265 1.204-2.007 1.674l-.16.097c-1.03.624-2.143 1.049-3.314 1.27l-30.878 13.179c-5.046 2.032-10.323 3.055-15.723 3.055h-35.53l-21.139 47.105-26.031 53.416c-2.682 5.5-8.366 9.054-14.485 9.054zm2-135.219v131.05c3.807-.647 7.169-3.11 8.889-6.637l26.005-53.358 21.642-48.23c.322-.719 1.036-1.182 1.824-1.182h36.824c4.886 0 9.659-.925 14.19-2.75l31.042-13.249c.077-.032.155-.061.235-.083.075-.021.171-.044.248-.057.754-.123 1.467-.386 2.119-.78l1.171 1.629-1.069-1.69c.445-.281.854-.623 1.213-1.014l.11-.12c.172-.195.324-.39.452-.578.01-.015.019-.028.028-.043.14-.209.26-.431.373-.658l.079-.166c.117-.253.204-.472.27-.677.006-.021.012-.043.019-.063.073-.24.125-.488.167-.74l.033-.215c.041-.305.061-.563.061-.796v-8.145c0-.409-.041-.816-.121-1.211-.079-.384-.196-.762-.35-1.124-.089-.211-.211-.446-.371-.716-.18-.302-.353-.553-.527-.765-.244-.296-.519-.57-.814-.814-1.069-.883-2.424-1.369-3.814-1.37-1.104-.001-1.999-.896-1.999-2.001 0-1.104.896-1.999 2-1.999h12.998c3.309 0 6-2.691 6-6v-8.424c-.62-5.484-5.424-5.7-5.629-5.707-1.03-.033-1.867-.844-1.933-1.873s.663-1.938 1.682-2.101l1.158-.185.997-.31c2.265-.929 3.725-3.097 3.725-5.544v-8.699c0-3.369-2.74-6.109-6.109-6.109-1.104 0-2-.896-2-2s.896-2 2-2h29.479c2.725 0 5.277-1.071 7.187-3.016s2.934-4.518 2.883-7.246c-.099-5.449-4.796-9.883-10.471-9.883h-72.31c-.599 0-1.166-.269-1.546-.731s-.532-1.071-.416-1.658c.907-4.565.518-9.287-1.125-13.654-.319-.849-1.288-1.294-2.156-.994l-61.424 21.166c-2.313.798-4.405 2.034-6.219 3.677l-11.627 10.531c-2.762 2.5-4.655 5.742-5.476 9.377l-10.182 45.09c-.797 3.528-2.47 6.837-4.839 9.567z"/></g></svg>