<svg id="Layer_3" enable-background="new 0 0 64 64" height="512" viewBox="0 0 64 64" width="512" xmlns="http://www.w3.org/2000/svg"><g><g><path d="m41 39h-18c-5.523 0-10 4.477-10 10v9h8v4h22v-4h8v-9c0-5.523-4.477-10-10-10z" fill="#f097d0"/></g><g><path d="m22 61c10.493 0 19-9.178 19-20.5 0-.506-.037-1.003-.07-1.5h-17.93c-5.523 0-10 4.477-10 10v9h8v2.946c.333.018.662.054 1 .054z" fill="#f6c1e3"/></g><g><path d="m45 21h.5c1.933 0 3.5 1.567 3.5 3.5 0 1.933-1.567 3.5-3.5 3.5h-.5z" fill="#fadfb2"/></g><g><path d="m19 21h-.5c-1.933 0-3.5 1.567-3.5 3.5 0 1.933 1.567 3.5 3.5 3.5h.5z" fill="#fadfb2"/></g><g><path d="m45 17v9c0 7.18-5.82 13-13 13-7.18 0-13-5.82-13-13v-9c0-4.971 4.029-9 9-9h8c4.971 0 9 4.029 9 9z" fill="#fadfb2"/></g><g><path d="m36 8h-8c-4.971 0-9 4.029-9 9v5h7c3.314 0 6-2.686 6-6 0 3.314 2.686 6 6 6h7v-5c0-4.971-4.029-9-9-9z" fill="#8892a0"/></g><g><path d="m26 8v-2c0-2.209 1.791-4 4-4h4c2.209 0 4 1.791 4 4v2z" fill="#8892a0"/></g><g><circle cx="28" cy="27" fill="#8892a0" r="2"/></g><g><circle cx="36" cy="27" fill="#8892a0" r="2"/></g><g><path d="m25 39v2c0 1.657 1.343 3 3 3 1.249 0 2.416.624 3.109 1.664l.891 1.336.891-1.336c.693-1.04 1.86-1.664 3.109-1.664 1.657 0 3-1.343 3-3v-2z" fill="#fadfb2"/></g><g><path d="m15 58h6v4h-6z" fill="#fadfb2"/></g><g><path d="m43 58h6v4h-6z" fill="#fadfb2"/></g><g><path d="m32 36c-2.757 0-5-2.243-5-5h2c0 1.654 1.346 3 3 3s3-1.346 3-3h2c0 2.757-2.243 5-5 5z"/></g><g><path d="m32 48c-.334 0-.646-.167-.832-.445l-.891-1.336c-.508-.763-1.36-1.219-2.277-1.219-2.206 0-4-1.794-4-4v-2h2v2c0 1.103.897 2 2 2 1.588 0 3.061.789 3.941 2.109l.059.088.059-.088c.88-1.32 2.353-2.109 3.941-2.109 1.103 0 2-.897 2-2v-2h2v2c0 2.206-1.794 4-4 4-.917 0-1.769.456-2.277 1.219l-.891 1.336c-.186.278-.498.445-.832.445z"/></g><g><path d="m31 47h2v16h-2z"/></g><g><path d="m35 51h2v2h-2z"/></g><g><path d="m35 55h2v2h-2z"/></g><g><path d="m35 59h2v2h-2z"/></g><g><path d="m42 49h2v14h-2z"/></g><g><path d="m51 59h-8v-2h7v-8c0-4.962-4.038-9-9-9h-18c-4.962 0-9 4.038-9 9v8h7v2h-8c-.552 0-1-.448-1-1v-9c0-6.065 4.935-11 11-11h18c6.065 0 11 4.935 11 11v9c0 .552-.448 1-1 1z"/></g><g><path d="m20 49h2v14h-2z"/></g><g><path d="m14 58h2v5h-2z"/></g><g><path d="m48 58h2v5h-2z"/></g><g><path d="m45.5 29h-.5v-2h.5c1.378 0 2.5-1.122 2.5-2.5s-1.122-2.5-2.5-2.5h-.5v-2h.5c2.481 0 4.5 2.019 4.5 4.5s-2.019 4.5-4.5 4.5z"/></g><g><path d="m39 8h-2v-2c0-1.654-1.346-3-3-3h-4c-1.654 0-3 1.346-3 3v2h-2v-2c0-2.757 2.243-5 5-5h4c2.757 0 5 2.243 5 5z"/></g><g><path d="m28 30c-1.654 0-3-1.346-3-3s1.346-3 3-3 3 1.346 3 3-1.346 3-3 3zm0-4c-.551 0-1 .449-1 1s.449 1 1 1 1-.449 1-1-.449-1-1-1z"/></g><g><path d="m36 30c-1.654 0-3-1.346-3-3s1.346-3 3-3 3 1.346 3 3-1.346 3-3 3zm0-4c-.551 0-1 .449-1 1s.449 1 1 1 1-.449 1-1-.449-1-1-1z"/></g><g><path d="m30 26h4v2h-4z"/></g><g><path d="m37.199 23.5h8.602v2h-8.602z" transform="matrix(.814 -.581 .581 .814 -6.512 28.671)"/></g><g><path d="m21.5 20.199h2v8.602h-2z" transform="matrix(.581 -.814 .814 .581 -10.514 28.569)"/></g><g><path d="m19 29h-.5c-2.481 0-4.5-2.019-4.5-4.5s2.019-4.5 4.5-4.5h.5v2h-.5c-1.378 0-2.5 1.122-2.5 2.5s1.122 2.5 2.5 2.5h.5z"/></g><g><path d="m32 40c-7.72 0-14-6.28-14-14v-9c0-5.514 4.486-10 10-10h8c5.514 0 10 4.486 10 10v9c0 7.72-6.28 14-14 14zm-4-31c-4.411 0-8 3.589-8 8v9c0 6.617 5.383 12 12 12s12-5.383 12-12v-9c0-4.411-3.589-8-8-8z"/></g><g><path d="m45 23h-7c-2.543 0-4.774-1.363-6-3.397-1.226 2.034-3.457 3.397-6 3.397h-7v-2h7c2.757 0 5-2.243 5-5 0-.552.448-1 1-1s1 .448 1 1c0 2.757 2.243 5 5 5h7z"/></g></g></svg>