<svg id="Layer_1" enable-background="new 0 0 511.91 511.91" height="512" viewBox="0 0 511.91 511.91" width="512" xmlns="http://www.w3.org/2000/svg"><g><path d="m209.891 128.182c14.696 0 26.374-12.347 25.557-27.021l-.351-6.293h-50.23l-.477 5.509c-1.295 14.952 10.492 27.805 25.501 27.805z" fill="#ffb69e"/><path d="m331.795 263.008c12.616-3.907 19.676-17.302 15.769-29.917l-31.01-100.126c-7.057-22.787-27.827-38.096-51.681-38.096h-29.775c.002.039.006.077.008.116.608 13.565-11.979 25.118-25.118 25.118-14.081 0-24.508-11.509-25.118-25.118-.002-.039 0-.077-.002-.116h-27.12c-23.855 0-44.624 15.309-51.681 38.096l-20.073 64.81 20.404 11.25 26.13.16 11.242-36.297v43.363 47.827 42.021c44.899-.003 89.753 2.2 134.632 3.29v-137.952l23.477 75.802c3.893 12.577 17.261 19.687 29.916 15.769z" fill="#64afff"/><g><path d="m124.666 457.213-19.735-127.611c-1.571-10.152 2.813-20.307 11.278-26.127l46.377-31.884c12.171-8.369 28.823-5.284 37.19 6.887 8.368 12.172 5.285 28.823-6.887 37.191l-32.53 22.363 17.167 111.004c2.258 14.597-7.746 28.261-22.343 30.518-14.629 2.264-28.264-7.773-30.517-22.341z" fill="#5f6e9b"/></g><g><path d="m276.159 479.557c-14.597-2.258-24.601-15.921-22.343-30.518l16.946-109.576-37.175-21.614c-12.77-7.424-17.102-23.795-9.678-36.564 7.424-12.77 23.794-17.102 36.564-9.678l52.952 30.787c9.516 5.533 14.67 16.331 12.988 27.209l-19.735 127.611c-2.258 14.599-15.924 24.6-30.519 22.343z" fill="#414b82"/></g><g><g><path d="m60.623 511.91c-10.968 0-19.859-8.891-19.859-19.859v-201.109c0-10.968 8.891-19.859 19.859-19.859s19.859 8.891 19.859 19.859v201.109c.001 10.968-8.89 19.859-19.859 19.859z" fill="#783c28"/></g><g><path d="m451.287 511.91c-10.968 0-19.859-8.891-19.859-19.859v-201.109c0-10.968 8.891-19.859 19.859-19.859s19.859 8.891 19.859 19.859v201.109c0 10.968-8.891 19.859-19.859 19.859z" fill="#783c28"/></g></g><ellipse cx="207.361" cy="49.561" fill="#ffb69e" rx="49.561" ry="49.561" transform="matrix(.383 -.924 .924 .383 82.219 222.172)"/><g><path d="m201.09 108.479c.142 22.842 4.814 22.631 7.363 34.93 1.18 6.187 1.073 12.972-2.139 18.327-1.703 2.925-4.686 5.177-7.751 5.449 4.691-14.83-19.517-32.334-4.336-52.891 1.748-2.304 4.194-4.672 6.863-5.815z" fill="#c8e6eb"/></g><g><path d="m219.606 82.842c.099 15.915 3.354 15.767 5.13 24.337.822 4.311.747 9.038-1.491 12.769-1.187 2.038-3.265 3.607-5.401 3.796 3.268-10.333-13.598-22.528-3.021-36.85 1.22-1.606 2.924-3.256 4.783-4.052z" fill="#c8e6eb"/></g><path d="m184.292 243.101h105.139v20.441h-105.139z" fill="#46738c"/><path d="m443.584 130.788h-155.31c-9.184 0-17.106 6.449-18.969 15.443l-24.549 118.532h172.082c9.184 0 17.106-6.449 18.969-15.442l21.148-102.109c1.755-8.476-4.716-16.424-13.371-16.424z" fill="#55879b"/><ellipse cx="351" cy="197.775" fill="#87afb9" rx="21.808" ry="21.809" transform="matrix(.973 -.23 .23 .973 -36.05 85.934)"/><g><g><path d="m12.588 290.942c0 15.133 12.268 27.4 27.4 27.4h429.427c15.133 0 29.907-12.268 29.907-27.4 0-15.133-14.774-27.4-29.907-27.4h-429.426c-15.133 0-27.401 12.268-27.401 27.4z" fill="#965028"/></g></g><path d="m223.029 179.01h-39.889c-4.554 0-8.247 3.692-8.247 8.247v53.658c0 4.555 3.692 8.247 8.247 8.247h39.889c4.555 0 8.247-3.692 8.247-8.247v-53.658c0-4.555-3.692-8.247-8.247-8.247z" fill="#fff"/><path d="m186.299 216.251h-55.962l2.189-7.066-46.534-11.41-10.851 35.035c-4.975 15.395 6.519 31.268 22.756 31.268h88.975c13.497 0 24.382-11.181 23.898-24.785-.46-12.959-11.504-23.042-24.471-23.042z" fill="#ffb69e"/></g></svg>