<svg id="Capa_1" enable-background="new 0 0 512 512" height="512" viewBox="0 0 512 512" width="512" xmlns="http://www.w3.org/2000/svg"><g><g><path d="m405.701 179.5 60.3 70.5-60 30v96c0 16.57-13.43 30-30 30h-90v96h-180v-177.83c-36.59-32.76-59.71-80.26-60-133.17-.53-98.2 76.77-181 180-181 95.89 0 174.26 74.97 179.7 169.5z" fill="#ffddcf"/><circle cx="226.001" cy="190" fill="#a0e4a5" r="120"/></g><g><path d="m415.459 175.523c-7.442-98.698-90.009-175.523-189.458-175.523-107.335 0-190.568 85.741-190 191.055.286 52.054 22.098 101.912 60 137.512v173.433c0 5.522 4.477 10 10 10h180c5.522 0 10-4.478 10-10v-86h80c22.056 0 40-17.944 40-40v-89.819l54.473-27.236c2.752-1.376 4.718-3.943 5.328-6.96.611-3.016-.201-6.146-2.201-8.484zm-13.929 95.533c-3.389 1.694-5.528 5.156-5.528 8.944v96c0 11.028-8.972 20-20 20h-90c-5.522 0-10 4.478-10 10v86h-160v-167.83c0-2.844-1.211-5.554-3.33-7.45-35.752-32.01-56.408-77.853-56.67-125.773-.508-93.941 73.493-170.947 169.999-170.947 90.002 0 164.551 70.313 169.717 160.074.126 2.183.963 4.265 2.384 5.926l51.984 60.777z"/><path d="m271.43 160.429-52.929 52.929-37.929-37.929c-3.905-3.904-10.237-3.904-14.143 0-3.905 3.905-3.905 10.237 0 14.143l45 45c1.953 1.952 4.512 2.929 7.071 2.929s5.119-.977 7.071-2.929l60-60c3.905-3.905 3.905-10.237 0-14.143-3.905-3.905-10.235-3.905-14.141 0z"/><circle cx="311.001" cy="275" r="10"/><path d="m226.001 60c-71.682 0-130 58.317-130 130s58.318 130 130 130c17.948 0 35.334-3.594 51.676-10.68 5.067-2.197 7.394-8.087 5.196-13.153-2.198-5.068-8.088-7.394-13.153-5.196-13.815 5.991-28.524 9.029-43.719 9.029-60.654 0-110-49.346-110-110s49.346-110 110-110 110 49.346 110 110c0 15.194-3.038 29.903-9.029 43.719-2.197 5.066.129 10.956 5.196 13.153 5.064 2.193 10.955-.131 13.153-5.196 7.086-16.342 10.68-33.728 10.68-51.676 0-71.683-58.317-130-130-130z"/></g></g></svg>